<svg width="1812" height="216" viewBox="0 0 1812 216" fill="none" xmlns="http://www.w3.org/2000/svg">
    <path d="M149.112 204H8.28V11.904H149.112V55.104H57.816V85.056H147.096V128.256H57.816V160.8H149.112V204Z" fill="#5A5ADE"/>
    <path d="M149.112 204V212H157.112V204H149.112ZM8.28 204H0.280001V212H8.28V204ZM8.28 11.904V3.90398H0.280001V11.904H8.28ZM149.112 11.904H157.112V3.90398H149.112V11.904ZM149.112 55.104V63.104H157.112V55.104H149.112ZM57.816 55.104V47.104H49.816V55.104H57.816ZM57.816 85.056H49.816V93.056H57.816V85.056ZM147.096 85.056H155.096V77.056H147.096V85.056ZM147.096 128.256V136.256H155.096V128.256H147.096ZM57.816 128.256V120.256H49.816V128.256H57.816ZM57.816 160.8H49.816V168.8H57.816V160.8ZM149.112 160.8H157.112V152.8H149.112V160.8ZM149.112 196H8.28V212H149.112V196ZM16.28 204V11.904H0.280001V204H16.28ZM8.28 19.904H149.112V3.90398H8.28V19.904ZM141.112 11.904V55.104H157.112V11.904H141.112ZM149.112 47.104H57.816V63.104H149.112V47.104ZM49.816 55.104V85.056H65.816V55.104H49.816ZM57.816 93.056H147.096V77.056H57.816V93.056ZM139.096 85.056V128.256H155.096V85.056H139.096ZM147.096 120.256H57.816V136.256H147.096V120.256ZM49.816 128.256V160.8H65.816V128.256H49.816ZM57.816 168.8H149.112V152.8H57.816V168.8ZM141.112 160.8V204H157.112V160.8H141.112ZM376.882 204V212H384.882V204H376.882ZM327.346 204H319.346V212H327.346V204ZM327.346 55.104H335.346V47.104H327.346V55.104ZM247.57 55.104V47.104H239.57V55.104H247.57ZM247.57 204V212H255.57V204H247.57ZM198.034 204H190.034V212H198.034V204ZM198.034 11.904V3.90398H190.034V11.904H198.034ZM376.882 11.904H384.882V3.90398H376.882V11.904ZM376.882 196H327.346V212H376.882V196ZM335.346 204V55.104H319.346V204H335.346ZM327.346 47.104H247.57V63.104H327.346V47.104ZM239.57 55.104V204H255.57V55.104H239.57ZM247.57 196H198.034V212H247.57V196ZM206.034 204V11.904H190.034V204H206.034ZM198.034 19.904H376.882V3.90398H198.034V19.904ZM368.882 11.904V204H384.882V11.904H368.882ZM598.127 179.52L603.668 185.29L598.127 179.52ZM450.958 179.52L445.417 185.29L445.431 185.304L445.446 185.317L450.958 179.52ZM450.958 36.672L445.446 30.8748L445.431 30.8884L445.417 30.902L450.958 36.672ZM562.414 147.84L556.495 142.459L562.414 147.84ZM562.414 68.352L556.495 73.7334L562.414 68.352ZM486.671 147.84L492.59 142.459L486.671 147.84ZM592.585 173.75C574.838 190.795 552.414 199.456 524.687 199.456V215.456C556.095 215.456 582.631 205.493 603.668 185.29L592.585 173.75ZM524.687 199.456C496.96 199.456 474.422 190.794 456.471 173.723L445.446 185.317C466.663 205.494 493.277 215.456 524.687 215.456V199.456ZM456.5 173.75C438.81 156.761 429.871 135.1 429.871 108.096H413.871C413.871 139.076 424.323 165.031 445.417 185.29L456.5 173.75ZM429.871 108.096C429.871 81.0922 438.81 59.431 456.5 42.4419L445.417 30.902C424.323 51.161 413.871 77.1158 413.871 108.096H429.871ZM456.471 42.4691C474.422 25.3982 496.96 16.736 524.687 16.736V0.735992C493.277 0.735992 466.663 10.6978 445.446 30.8748L456.471 42.4691ZM524.687 16.736C552.414 16.736 574.838 25.3975 592.585 42.4419L603.668 30.902C582.631 10.6985 556.095 0.735992 524.687 0.735992V16.736ZM592.585 42.4419C610.275 59.431 619.215 81.0922 619.215 108.096H635.215C635.215 77.1158 624.762 51.161 603.668 30.902L592.585 42.4419ZM619.215 108.096C619.215 135.1 610.275 156.761 592.585 173.75L603.668 185.29C624.762 165.031 635.215 139.076 635.215 108.096H619.215ZM524.687 171.68C542.266 171.68 557.072 165.61 568.334 153.221L556.495 142.459C548.557 151.19 538.211 155.68 524.687 155.68V171.68ZM568.334 153.221C579.432 141.014 584.815 125.772 584.815 108.096H568.815C568.815 122.292 564.597 133.546 556.495 142.459L568.334 153.221ZM584.815 108.096C584.815 90.4202 579.432 75.1785 568.334 62.9706L556.495 73.7334C564.597 82.6455 568.815 93.8998 568.815 108.096H584.815ZM568.334 62.9706C557.072 50.5824 542.266 44.512 524.687 44.512V60.512C538.211 60.512 548.557 65.0016 556.495 73.7334L568.334 62.9706ZM524.687 44.512C506.948 44.512 492.033 50.5602 480.751 62.9706L492.59 73.7334C500.508 65.0238 510.937 60.512 524.687 60.512V44.512ZM480.751 62.9706C469.653 75.1785 464.271 90.4202 464.271 108.096H480.271C480.271 93.8998 484.488 82.6455 492.59 73.7334L480.751 62.9706ZM464.271 108.096C464.271 125.772 469.653 141.014 480.751 153.221L492.59 142.459C484.488 133.546 480.271 122.292 480.271 108.096H464.271ZM480.751 153.221C492.033 165.632 506.948 171.68 524.687 171.68V155.68C510.937 155.68 500.508 151.168 492.59 142.459L480.751 153.221ZM711.646 11.904H719.646V3.90398H711.646V11.904ZM774.718 93.12L777.61 100.579L782.718 98.5983V93.12H774.718ZM774.718 11.904V3.90398H766.718V11.904H774.718ZM824.254 11.904H832.254V3.90398H824.254V11.904ZM824.254 204V212H832.254V204H824.254ZM774.718 204H766.718V212H774.718V204ZM774.718 136.608H782.718V126.522L772.897 128.818L774.718 136.608ZM679.966 122.496L674.14 127.979L674.182 128.023L674.224 128.066L679.966 122.496ZM661.534 11.904V3.90398H653.534V11.904H661.534ZM703.646 11.904V69.216H719.646V11.904H703.646ZM703.646 69.216C703.646 80.3414 706.583 90.1301 713.83 97.0385C721.005 103.879 731.05 106.592 742.462 106.592V90.592C733.33 90.592 727.966 88.4093 724.87 85.4575C721.845 82.5739 719.646 77.6746 719.646 69.216H703.646ZM742.462 106.592C755.355 106.592 767.116 104.648 777.61 100.579L771.826 85.6611C763.503 88.8881 753.76 90.592 742.462 90.592V106.592ZM782.718 93.12V11.904H766.718V93.12H782.718ZM774.718 19.904H824.254V3.90398H774.718V19.904ZM816.254 11.904V204H832.254V11.904H816.254ZM824.254 196H774.718V212H824.254V196ZM782.718 204V136.608H766.718V204H782.718ZM772.897 128.818C758.522 132.178 746.098 133.792 735.55 133.792V149.792C747.658 149.792 761.346 147.95 776.539 144.398L772.897 128.818ZM735.55 133.792C712.312 133.792 696.19 127.73 685.708 116.925L674.224 128.066C688.702 142.99 709.635 149.792 735.55 149.792V133.792ZM685.791 117.013C675.23 105.792 669.534 90.1811 669.534 69.216H653.534C653.534 93.1788 660.125 113.088 674.14 127.979L685.791 117.013ZM669.534 69.216V11.904H653.534V69.216H669.534ZM661.534 19.904H711.646V3.90398H661.534V19.904ZM971.399 204V212H979.399V204H971.399ZM921.863 204H913.863V212H921.863V204ZM921.863 55.104H929.863V47.104H921.863V55.104ZM868.007 55.104H860.007V63.104H868.007V55.104ZM868.007 11.904V3.90398H860.007V11.904H868.007ZM1024.97 11.904H1032.97V3.90398H1024.97V11.904ZM1024.97 55.104V63.104H1032.97V55.104H1024.97ZM971.399 55.104V47.104H963.399V55.104H971.399ZM971.399 196H921.863V212H971.399V196ZM929.863 204V55.104H913.863V204H929.863ZM921.863 47.104H868.007V63.104H921.863V47.104ZM876.007 55.104V11.904H860.007V55.104H876.007ZM868.007 19.904H1024.97V3.90398H868.007V19.904ZM1016.97 11.904V55.104H1032.97V11.904H1016.97ZM1024.97 47.104H971.399V63.104H1024.97V47.104ZM963.399 55.104V204H979.399V55.104H963.399ZM1237.61 204V212H1249.18L1245.09 201.173L1237.61 204ZM1181.45 204L1173.88 206.601L1175.74 212H1181.45V204ZM1171.95 176.352L1179.51 173.751L1177.66 168.352H1171.95V176.352ZM1096.2 176.352V168.352H1090.49L1088.64 173.751L1096.2 176.352ZM1086.7 204V212H1092.41L1094.26 206.601L1086.7 204ZM1030.54 204L1023.05 201.182L1018.98 212H1030.54V204ZM1102.83 11.904V3.90398H1097.29L1095.34 9.08639L1102.83 11.904ZM1165.03 11.904L1172.52 9.07656L1170.56 3.90398H1165.03V11.904ZM1158.41 133.152V141.152H1169.57L1165.99 130.586L1158.41 133.152ZM1133.93 60.864L1141.51 58.298L1133.93 35.9226L1126.35 58.298L1133.93 60.864ZM1109.45 133.152L1101.87 130.586L1098.29 141.152H1109.45V133.152ZM1237.61 196H1181.45V212H1237.61V196ZM1189.02 201.399L1179.51 173.751L1164.38 178.953L1173.88 206.601L1189.02 201.399ZM1171.95 168.352H1096.2V184.352H1171.95V168.352ZM1088.64 173.751L1079.13 201.399L1094.26 206.601L1103.77 178.953L1088.64 173.751ZM1086.7 196H1030.54V212H1086.7V196ZM1038.03 206.818L1110.31 14.7216L1095.34 9.08639L1023.05 201.182L1038.03 206.818ZM1102.83 19.904H1165.03V3.90398H1102.83V19.904ZM1157.55 14.7314L1230.13 206.827L1245.09 201.173L1172.52 9.07656L1157.55 14.7314ZM1165.99 130.586L1141.51 58.298L1126.35 63.43L1150.83 135.718L1165.99 130.586ZM1126.35 58.298L1101.87 130.586L1117.03 135.718L1141.51 63.43L1126.35 58.298ZM1109.45 141.152H1158.41V125.152H1109.45V141.152ZM1312.28 199.392L1306.62 193.735V193.735L1312.28 199.392ZM1274.26 199.392L1279.92 193.735L1274.26 199.392ZM1274.26 161.376L1279.92 167.033L1274.26 161.376ZM1312.28 161.376L1306.62 167.033L1312.28 161.376ZM1306.62 193.735C1302.68 197.681 1298.35 199.456 1293.27 199.456V215.456C1302.79 215.456 1311.13 211.855 1317.94 205.049L1306.62 193.735ZM1293.27 199.456C1288.19 199.456 1283.87 197.681 1279.92 193.735L1268.61 205.049C1275.41 211.855 1283.76 215.456 1293.27 215.456V199.456ZM1279.92 193.735C1275.97 189.789 1274.2 185.461 1274.2 180.384H1258.2C1258.2 189.899 1261.8 198.243 1268.61 205.049L1279.92 193.735ZM1274.2 180.384C1274.2 175.307 1275.97 170.979 1279.92 167.033L1268.61 155.719C1261.8 162.525 1258.2 170.869 1258.2 180.384H1274.2ZM1279.92 167.033C1283.87 163.087 1288.19 161.312 1293.27 161.312V145.312C1283.76 145.312 1275.41 148.913 1268.61 155.719L1279.92 167.033ZM1293.27 161.312C1298.35 161.312 1302.68 163.087 1306.62 167.033L1317.94 155.719C1311.13 148.913 1302.79 145.312 1293.27 145.312V161.312ZM1306.62 167.033C1310.57 170.979 1312.34 175.307 1312.34 180.384H1328.34C1328.34 170.869 1324.74 162.525 1317.94 155.719L1306.62 167.033ZM1312.34 180.384C1312.34 185.461 1310.57 189.789 1306.62 193.735L1317.94 205.049C1324.74 198.243 1328.34 189.899 1328.34 180.384H1312.34ZM1419.28 204V212H1427.28V204H1419.28ZM1369.74 204H1361.74V212H1369.74V204ZM1369.74 11.904V3.90398H1361.74V11.904H1369.74ZM1514.9 30.336L1509.15 35.9023L1509.17 35.925L1509.19 35.9474L1514.9 30.336ZM1514.9 121.344L1520.6 126.955L1520.62 126.933L1520.64 126.91L1514.9 121.344ZM1419.28 139.488V131.488H1411.28V139.488H1419.28ZM1475.73 90.816L1470.63 84.6483L1470.57 84.7041L1470.5 84.7614L1475.73 90.816ZM1475.73 60.576L1470.5 66.6306L1470.57 66.6879L1470.63 66.7437L1475.73 60.576ZM1419.28 55.104V47.104H1411.28V55.104H1419.28ZM1419.28 96.288H1411.28V104.288H1419.28V96.288ZM1419.28 196H1369.74V212H1419.28V196ZM1377.74 204V11.904H1361.74V204H1377.74ZM1369.74 19.904H1465.94V3.90398H1369.74V19.904ZM1465.94 19.904C1485 19.904 1499.06 25.4912 1509.15 35.9023L1520.64 24.7696C1506.92 10.6048 1488.35 3.90398 1465.94 3.90398V19.904ZM1509.19 35.9474C1519.51 46.4279 1524.75 59.5264 1524.75 75.84H1540.75C1540.75 55.6736 1534.09 38.4361 1520.6 24.7246L1509.19 35.9474ZM1524.75 75.84C1524.75 91.9364 1519.52 105.07 1509.15 115.778L1520.64 126.91C1534.08 113.042 1540.75 95.8396 1540.75 75.84H1524.75ZM1509.19 115.733C1499.12 125.973 1485.04 131.488 1465.94 131.488V147.488C1488.31 147.488 1506.87 140.907 1520.6 126.955L1509.19 115.733ZM1465.94 131.488H1419.28V147.488H1465.94V131.488ZM1411.28 139.488V204H1427.28V139.488H1411.28ZM1459.31 104.288C1467.54 104.288 1475 102.018 1480.96 96.8706L1470.5 84.7614C1468.01 86.9103 1464.52 88.288 1459.31 88.288V104.288ZM1480.82 96.9837C1487.29 91.6422 1490.35 84.2754 1490.35 75.84H1474.35C1474.35 80.0766 1473 82.6938 1470.63 84.6483L1480.82 96.9837ZM1490.35 75.84C1490.35 67.2999 1487.35 59.7993 1480.82 54.4083L1470.63 66.7437C1472.94 68.6487 1474.35 71.3241 1474.35 75.84H1490.35ZM1480.96 54.5214C1475 49.3743 1467.54 47.104 1459.31 47.104V63.104C1464.52 63.104 1468.01 64.4817 1470.5 66.6306L1480.96 54.5214ZM1459.31 47.104H1419.28V63.104H1459.31V47.104ZM1411.28 55.104V96.288H1427.28V55.104H1411.28ZM1419.28 104.288H1459.31V88.288H1419.28V104.288ZM1709.17 204V212H1717.17V204H1709.17ZM1659.35 204H1651.35V212H1659.35V204ZM1659.35 184.416H1667.35V177.098L1660.06 176.448L1659.35 184.416ZM1589.65 161.088L1584.66 167.335L1584.68 167.353L1584.7 167.371L1589.65 161.088ZM1589.65 55.392L1584.69 49.1167L1584.67 49.1308L1584.66 49.145L1589.65 55.392ZM1659.35 31.776L1660.07 39.744L1667.35 39.0902V31.776H1659.35ZM1659.35 11.904V3.90398H1651.35V11.904H1659.35ZM1709.17 11.904H1717.17V3.90398H1709.17V11.904ZM1709.17 31.776H1701.17V39.0902L1708.46 39.744L1709.17 31.776ZM1778.58 55.392L1773.58 61.6389L1773.6 61.6532L1773.62 61.6673L1778.58 55.392ZM1778.87 161.088L1783.82 167.371L1783.85 167.353L1783.87 167.335L1778.87 161.088ZM1709.17 184.416L1708.46 176.448L1701.17 177.098V184.416H1709.17ZM1709.17 140.352H1701.17V149.474L1710.22 148.284L1709.17 140.352ZM1709.17 75.84L1710.22 67.9084L1701.17 66.7184V75.84H1709.17ZM1659.35 75.84H1667.35V66.7184L1658.31 67.9084L1659.35 75.84ZM1659.35 140.352L1658.31 148.284L1667.35 149.474V140.352H1659.35ZM1709.17 196H1659.35V212H1709.17V196ZM1667.35 204V184.416H1651.35V204H1667.35ZM1660.06 176.448C1630.8 173.838 1609.27 166.362 1594.61 154.805L1584.7 167.371C1602.68 181.542 1627.62 189.618 1658.64 192.384L1660.06 176.448ZM1594.65 154.841C1580.37 143.414 1573.17 128.121 1573.17 108.096H1557.17C1557.17 132.615 1566.3 152.65 1584.66 167.335L1594.65 154.841ZM1573.17 108.096C1573.17 88.2879 1580.35 73.0805 1594.65 61.6389L1584.66 49.145C1566.32 63.8154 1557.17 83.744 1557.17 108.096H1573.17ZM1594.62 61.6673C1609.49 49.9074 1631.03 42.3497 1660.07 39.744L1658.64 23.808C1627.77 26.5782 1602.84 34.7646 1584.69 49.1167L1594.62 61.6673ZM1667.35 31.776V11.904H1651.35V31.776H1667.35ZM1659.35 19.904H1709.17V3.90398H1659.35V19.904ZM1701.17 11.904V31.776H1717.17V11.904H1701.17ZM1708.46 39.744C1737.5 42.3502 1758.92 49.9077 1773.58 61.6389L1783.58 49.145C1765.6 34.7642 1740.75 26.5778 1709.89 23.808L1708.46 39.744ZM1773.62 61.6673C1788.11 73.1221 1795.35 88.3236 1795.35 108.096H1811.35C1811.35 83.7084 1802.08 63.7739 1783.54 49.1167L1773.62 61.6673ZM1795.35 108.096C1795.35 128.121 1788.16 143.414 1773.87 154.841L1783.87 167.335C1802.22 152.65 1811.35 132.615 1811.35 108.096H1795.35ZM1773.92 154.805C1759.26 166.362 1737.73 173.838 1708.46 176.448L1709.88 192.384C1740.91 189.618 1765.84 181.542 1783.82 167.371L1773.92 154.805ZM1701.17 184.416V204H1717.17V184.416H1701.17ZM1710.22 148.284C1725.4 146.286 1737.89 142.378 1746.75 135.848C1756.03 129.011 1760.95 119.547 1760.95 108.096H1744.95C1744.95 114.309 1742.57 119.053 1737.26 122.968C1731.53 127.19 1722.13 130.578 1708.13 132.42L1710.22 148.284ZM1760.95 108.096C1760.95 96.6447 1756.03 87.1809 1746.75 80.3436C1737.89 73.8137 1725.4 69.9064 1710.22 67.9084L1708.13 83.7716C1722.13 85.6136 1731.53 89.0023 1737.26 93.2244C1742.57 97.1391 1744.95 101.883 1744.95 108.096H1760.95ZM1701.17 75.84V140.352H1717.17V75.84H1701.17ZM1658.31 67.9084C1643.12 69.9064 1630.63 73.8137 1621.77 80.3436C1612.49 87.1809 1607.57 96.6447 1607.57 108.096H1623.57C1623.57 101.883 1625.95 97.1391 1631.26 93.2244C1636.99 89.0023 1646.4 85.6136 1660.39 83.7716L1658.31 67.9084ZM1607.57 108.096C1607.57 119.547 1612.49 129.011 1621.77 135.848C1630.63 142.378 1643.12 146.286 1658.31 148.284L1660.39 132.42C1646.4 130.578 1636.99 127.19 1631.26 122.968C1625.95 119.053 1623.57 114.309 1623.57 108.096H1607.57ZM1667.35 140.352V75.84H1651.35V140.352H1667.35Z" fill="#5A5ADE"/>
</svg>